<?xml version="1.0" encoding="iso-8859-1"?>
<!-- Uploaded to: SVG Repo, www.svgrepo.com, Generator: SVG Repo Mixer Tools -->
<!DOCTYPE svg PUBLIC "-//W3C//DTD SVG 1.1//EN" "http://www.w3.org/Graphics/SVG/1.1/DTD/svg11.dtd">
<svg fill="#32CAC6" height="800px" width="800px" version="1.1" id="Capa_1" xmlns="http://www.w3.org/2000/svg" xmlns:xlink="http://www.w3.org/1999/xlink" 
	 viewBox="0 0 422.207 422.207" xml:space="preserve">
<path id="XMLID_269_" d="M180.758,228.593h-25.124V206.42c0-12.613-10.261-22.874-22.873-22.874h-21.028
	c-12.613,0-22.874,10.261-22.874,22.874v22.173H63.734c-7.146,0-12.959,5.813-12.959,12.958v155.394
	c0,9.878,8.038,17.915,17.918,17.915h5.555c9.88,0,17.917-8.037,17.917-17.915v-0.025h60.163v0.025
	c0,9.878,8.037,17.915,17.916,17.915h5.556c9.879,0,17.916-8.037,17.916-17.915V241.552
	C193.716,234.406,187.903,228.593,180.758,228.593z M104.858,206.42c0-3.791,3.084-6.874,6.874-6.874h21.028
	c3.79,0,6.873,3.083,6.873,6.874v22.173h-34.775V206.42z M104.858,244.593h34.775v11.819h-34.775V244.593z M76.165,396.946
	c0,1.038-0.878,1.915-1.917,1.915h-5.555c-1.04,0-1.918-0.877-1.918-1.915v-16.05c0-1.038,0.878-1.915,1.918-1.915h5.555
	c1.039,0,1.917,0.877,1.917,1.915V396.946z M177.716,396.946c0,1.038-0.877,1.915-1.916,1.915h-5.556
	c-1.039,0-1.916-0.877-1.916-1.915v-8.025v-8.025c0-1.038,0.877-1.915,1.916-1.915h5.556c1.039,0,1.916,0.877,1.916,1.915V396.946z
	 M177.716,363.083c-0.63-0.067-1.269-0.102-1.916-0.102h-5.556c-9.879,0-17.916,8.037-17.916,17.915v0.025H92.165v-0.025
	c0-9.878-8.037-17.915-17.917-17.915h-5.555c-0.647,0-1.288,0.035-1.918,0.102v-118.49h22.083v19.819c0,4.418,3.582,8,8,8h50.775
	c4.418,0,8-3.582,8-8v-19.819h22.082V363.083z M414.207,152.429h-93.552v-27.532h68.163c4.418,0,8-3.582,8-8V15.346
	c0-4.418-3.582-8-8-8H236.491c-4.418,0-8,3.582-8,8v101.551c0,4.418,3.582,8,8,8h68.164v27.532H249.99
	c0.295-0.835,0.456-1.733,0.456-2.67c0-4.418-3.582-8-8-8H191.67c-4.418,0-8,3.582-8,8c0,0.937,0.161,1.835,0.456,2.67H8
	c-4.418,0-8,3.582-8,8v177.716c0,4.418,3.582,8,8,8h25.389c4.418,0,8-3.582,8-8s-3.582-8-8-8H16V168.429h390.207v161.716H211.104
	c-4.418,0-8,3.582-8,8s3.582,8,8,8h203.103c4.418,0,8-3.582,8-8V160.429C422.207,156.011,418.625,152.429,414.207,152.429z
	 M244.491,108.897V23.346h136.327v85.551h-68.163H244.491z"/>
</svg>